<svg width="11" height="13" viewBox="0 0 11 13" fill="none" xmlns="http://www.w3.org/2000/svg">
<path d="M1.03108 8.41631L5.19774 12.583C5.2556 12.6356 5.32204 12.6778 5.39417 12.708C5.46542 12.7395 5.54247 12.7557 5.62036 12.7557C5.69826 12.7557 5.7753 12.7395 5.84655 12.708C5.91869 12.6778 5.98513 12.6356 6.04298 12.583L10.2097 8.41631C10.2651 8.36081 10.3092 8.29493 10.3392 8.22241C10.3692 8.1499 10.3847 8.07218 10.3847 7.99369C10.3847 7.83518 10.3217 7.68316 10.2097 7.57107C10.0976 7.45899 9.94554 7.39602 9.78703 7.39602C9.62852 7.39602 9.4765 7.45899 9.36441 7.57107L6.2156 10.7258V1.44608C6.2156 1.28821 6.15289 1.13681 6.04126 1.02518C5.92963 0.913549 5.77823 0.850837 5.62036 0.850837C5.4625 0.850837 5.3111 0.913549 5.19947 1.02518C5.08784 1.13681 5.02513 1.28821 5.02513 1.44608V10.7258L1.87632 7.57107C1.82098 7.51528 1.75515 7.471 1.68261 7.44078C1.61008 7.41056 1.53228 7.395 1.4537 7.395C1.37512 7.395 1.29732 7.41056 1.22478 7.44078C1.15225 7.471 1.08641 7.51528 1.03108 7.57107C0.975288 7.62641 0.931005 7.69224 0.900786 7.76478C0.870566 7.83731 0.855008 7.91512 0.855008 7.99369C0.855008 8.07227 0.870566 8.15007 0.900786 8.22261C0.931005 8.29514 0.975288 8.36098 1.03108 8.41631Z" fill="#656565" stroke="#656565" stroke-width="0.000142857"/>
</svg>
